<?xml version="1.0" encoding="UTF-8" standalone="no"?>
<svg
   xmlns:dc="http://purl.org/dc/elements/1.1/"
   xmlns:cc="http://creativecommons.org/ns#"
   xmlns:rdf="http://www.w3.org/1999/02/22-rdf-syntax-ns#"
   xmlns:svg="http://www.w3.org/2000/svg"
   xmlns="http://www.w3.org/2000/svg"
   xmlns:xlink="http://www.w3.org/1999/xlink"
   xmlns:sodipodi="http://sodipodi.sourceforge.net/DTD/sodipodi-0.dtd"
   xmlns:inkscape="http://www.inkscape.org/namespaces/inkscape"
   width="419.77298"
   height="596.69318"
   id="svg2"
   version="1.1"
   inkscape:version="0.91 r13725"
   sodipodi:docname="bang-bang.svg"
   inkscape:export-filename="/home/hake/laerer/15-hoest/it2/heldagsprove_V16/heldagsprove/figurer/bang.png"
   inkscape:export-xdpi="74.975883"
   inkscape:export-ydpi="74.975883">
  <defs
     id="defs20">
    <linearGradient
       id="linearGradient239">
      <stop
         style="stop-color:#f8ce00;stop-opacity:1;"
         offset="0.000000"
         id="stop240" />
      <stop
         style="stop-color:#b79700;stop-opacity:1;"
         offset="1.000000"
         id="stop241" />
    </linearGradient>
  </defs>
  <sodipodi:namedview
     pagecolor="#ffffff"
     bordercolor="#666666"
     borderopacity="1"
     objecttolerance="10"
     gridtolerance="10"
     guidetolerance="10"
     inkscape:pageopacity="0"
     inkscape:pageshadow="2"
     inkscape:window-width="1920"
     inkscape:window-height="988"
     id="namedview18"
     showgrid="false"
     fit-margin-top="0"
     fit-margin-left="0"
     fit-margin-right="0"
     fit-margin-bottom="0"
     inkscape:zoom="0.7692497"
     inkscape:cx="289.28938"
     inkscape:cy="288.4533"
     inkscape:window-x="0"
     inkscape:window-y="0"
     inkscape:window-maximized="1"
     inkscape:current-layer="layer2" />
  <metadata
     id="metadata7">image/svg+xml<rdf:RDF>
  <cc:Work
     rdf:about="">
    <dc:format>image/svg+xml</dc:format>
    <dc:type
       rdf:resource="http://purl.org/dc/dcmitype/StillImage" />
    <dc:title></dc:title>
  </cc:Work>
</rdf:RDF>
</metadata>
  <g
     id="g5"
     transform="translate(-195.21777,-50.7175)">
    <title
       id="title7">Layer 1</title>
    <g
       id="layer2">
      <g
         id="g4284"
         transform="matrix(0,-1.3005047,1.3005955,0,27.111259,883.10287)"
         inkscape:export-xdpi="25.700001"
         inkscape:export-ydpi="25.700001">
        <path
           style="fill:#ff0000;stroke:#000000;stroke-width:0.7689054px"
           inkscape:connector-curvature="0"
           d="m 259.60581,273.23197 26.65103,-6.8239 -47.19454,-56.86587 66.07236,14.21647 0,-11.94183 24.43012,10.80451 -0.55524,-47.19868 34.42424,31.27624 17.76737,-68.23905 22.20919,73.35698 13.32553,-37.53149 11.65981,32.98222 22.76443,-77.90625 9.43891,72.21966 24.43009,-16.49111 1.6657,28.43294 34.42424,-31.84489 0,39.80612 73.29036,-41.5121 -43.30795,61.41514 26.65105,-1.1373 -11.10461,30.70755 73.29032,13.07915 -78.28739,23.315 25.5406,26.72697 -35.53474,12.51049 c 0,0 31.64811,60.84651 29.42719,60.84651 -2.22093,0 -47.19455,-22.17772 -47.19455,-22.17772 l 11.65984,66.53309 -45.52885,-66.53309 -4.99707,27.86429 -23.31964,-24.45234 -5.55229,48.90465 -23.87489,-43.78672 -12.21506,17.05978 -14.43597,-21.0404 -32.20334,43.21806 -5.55229,-38.66879 -41.64225,14.21649 2.77615,-31.8449 c 0,0 -52.1916,48.90467 -51.63636,45.4927 0.55522,-3.41194 13.88073,-69.94502 13.88073,-69.94502 l -41.64223,10.80451 c 0,0 32.20333,-36.96283 29.42718,-38.10013 -2.77616,-1.13733 -107.71459,-11.94184 -107.71459,-11.94184 0,0 102.71753,-23.88366 100.4966,-25.02098 -2.22092,-1.13732 -23.87489,-13.64782 -22.20919,-14.78512 l 0,0 z"
           id="path2891" />
        <path
           style="fill:#ff7400;fill-opacity:1;stroke:#000000;stroke-width:0.7689054px"
           inkscape:connector-curvature="0"
           d="m 288.4282,279.9192 21.81462,-4.70131 -38.63007,-39.17756 54.0821,9.79439 0,-8.2273 19.99678,7.44373 -0.4545,-32.51738 28.17723,21.54768 14.5431,-47.01307 18.17886,50.53904 10.90733,-25.85719 9.54388,22.72298 18.63334,-53.67325 7.72603,49.7555 19.99673,-11.36149 1.36343,19.58878 28.17722,-21.93944 0,27.4243 59.99029,-28.59962 -35.44884,42.31177 21.81468,-0.78354 -9.08951,21.15587 59.99031,9.01083 -64.0805,16.06281 20.90571,18.41344 -29.08624,8.61908 c 0,0 25.90486,41.91999 24.087,41.91999 -1.81789,0 -38.63005,-15.27926 -38.63005,-15.27926 l 9.54387,45.83776 -37.26662,-45.83776 -4.09027,19.19701 -19.08779,-16.84635 -4.54472,33.69269 -19.54228,-30.16671 -9.99837,11.75326 -11.81626,-14.49569 -26.35935,29.77493 -4.54472,-26.64074 -34.08536,9.79441 2.27235,-21.93944 c 0,0 -42.72032,33.69273 -42.26583,31.34205 0.45447,-2.35066 11.36177,-48.18839 11.36177,-48.18839 l -34.08535,7.44373 c 0,0 26.35935,-25.46542 24.08699,-26.24897 -2.27237,-0.78356 -88.16747,-8.2273 -88.16747,-8.2273 0,0 84.07724,-16.45458 82.25933,-17.2381 -1.81789,-0.78357 -19.54226,-9.40263 -18.17885,-10.18617 l 0,0 z"
           id="path2891-8" />
        <path
           style="fill:#ffff00;fill-opacity:1;stroke:#000000;stroke-width:0.76890528px"
           inkscape:connector-curvature="0"
           d="m 324.89609,286.28127 16.22515,-2.93991 -28.73206,-24.49931 40.2249,6.12483 0,-5.14486 14.87308,4.65485 -0.33804,-20.33442 20.95751,13.47462 10.81679,-29.39914 13.52096,31.60409 8.1126,-16.16955 7.0985,14.2096 13.85901,-33.56404 5.74642,31.11411 14.87306,-7.1048 1.01408,12.24965 20.9575,-13.71961 0,17.14952 44.61925,-17.88449 -26.36594,26.45925 16.2252,-0.48998 -6.76054,13.22961 44.61926,5.63484 -47.66144,10.04472 15.54913,11.51466 -21.63361,5.38986 c 0,0 19.26738,26.21426 17.9153,26.21426 -1.35209,0 -28.73204,-9.55474 -28.73204,-9.55474 l 7.09849,28.6642 -27.71797,-28.6642 -3.04224,12.00467 -14.19701,-10.5347 -3.38025,21.06939 -14.53505,-18.86446 -7.43653,7.34978 -8.78865,-9.06474 -19.60541,18.61947 -3.38024,-16.65953 -25.35182,6.12485 1.69011,-13.71961 c 0,0 -31.77428,21.0694 -31.43625,19.59944 0.33803,-1.46997 8.4506,-30.13415 8.4506,-30.13415 l -25.35181,4.65487 c 0,0 19.60541,-15.92455 17.91529,-16.41454 -1.69014,-0.49 -65.57672,-5.14487 -65.57672,-5.14487 0,0 62.5345,-10.2897 61.18238,-10.77966 -1.35209,-0.49 -14.53503,-5.87984 -13.52095,-6.36983 l 0,0 z"
           id="path2891-8-8" />
      </g>
    </g>
    <g
       display="none"
       id="layer1"
       style="display:none;opacity:0.709677">
      <image
         xlink:href="file:///home/gaston/GNU/tableau-bang.jpg"
         width="843.56616"
         height="565.18933"
         id="image2886"
         x="74.721352"
         y="50.338318" />
    </g>
  </g>
</svg>
